<svg width="20" height="20" viewBox="0 0 20 20" fill="none" xmlns="http://www.w3.org/2000/svg">
<path d="M17.5732 0C18.1462 0 18.6331 0.200521 19.0342 0.601562C19.4352 1.0026 19.6357 1.48958 19.6357 2.0625V17.1875C19.6357 17.7604 19.4352 18.2474 19.0342 18.6484C18.6331 19.0495 18.1462 19.25 17.5732 19.25H11.6865V12.7188H14.1787L14.6514 9.625H11.6865V7.60547C11.6865 6.51693 12.2594 5.97266 13.4053 5.97266H14.7373V3.35156C13.9352 3.20833 13.1475 3.13672 12.374 3.13672C11.5433 3.13672 10.8271 3.29427 10.2256 3.60938C9.65267 3.92448 9.19434 4.39714 8.85059 5.02734C8.50684 5.65755 8.33496 6.40234 8.33496 7.26172V9.625H5.62793V12.7188H8.33496V19.25H2.44824C1.87533 19.25 1.38835 19.0495 0.987305 18.6484C0.586263 18.2474 0.385742 17.7604 0.385742 17.1875V2.0625C0.385742 1.48958 0.586263 1.0026 0.987305 0.601562C1.38835 0.200521 1.87533 0 2.44824 0H17.5732Z" fill="#222222"/>
</svg>
