<svg width="20" height="20" viewBox="0 0 20 20" fill="none" xmlns="http://www.w3.org/2000/svg">
<path d="M6.2373 6.14453C7.21126 5.17057 8.38574 4.68359 9.76074 4.68359C11.1357 4.68359 12.2959 5.17057 13.2412 6.14453C14.2152 7.08984 14.7021 8.25 14.7021 9.625C14.7021 11 14.2152 12.1745 13.2412 13.1484C12.2959 14.0938 11.1357 14.5664 9.76074 14.5664C8.38574 14.5664 7.21126 14.0938 6.2373 13.1484C5.29199 12.1745 4.81934 11 4.81934 9.625C4.81934 8.25 5.29199 7.08984 6.2373 6.14453ZM7.4834 11.9023C8.11361 12.5326 8.87272 12.8477 9.76074 12.8477C10.6488 12.8477 11.4079 12.5326 12.0381 11.9023C12.6683 11.2721 12.9834 10.513 12.9834 9.625C12.9834 8.73698 12.6683 7.97786 12.0381 7.34766C11.4079 6.71745 10.6488 6.40234 9.76074 6.40234C8.87272 6.40234 8.11361 6.71745 7.4834 7.34766C6.85319 7.97786 6.53809 8.73698 6.53809 9.625C6.53809 10.513 6.85319 11.2721 7.4834 11.9023ZM15.6904 3.69531C15.9196 3.89583 16.0342 4.15365 16.0342 4.46875C16.0342 4.78385 15.9196 5.05599 15.6904 5.28516C15.4899 5.51432 15.2321 5.62891 14.917 5.62891C14.6019 5.62891 14.3298 5.51432 14.1006 5.28516C13.8714 5.05599 13.7568 4.78385 13.7568 4.46875C13.7568 4.15365 13.8714 3.89583 14.1006 3.69531C14.3298 3.46615 14.6019 3.35156 14.917 3.35156C15.2321 3.35156 15.4899 3.46615 15.6904 3.69531ZM19.3428 5.67188C19.3714 6.44531 19.3857 7.76302 19.3857 9.625C19.3857 11.487 19.3714 12.8047 19.3428 13.5781C19.2568 15.3255 18.7269 16.6862 17.7529 17.6602C16.8076 18.6055 15.4613 19.1068 13.7139 19.1641C12.9404 19.2214 11.6227 19.25 9.76074 19.25C7.89876 19.25 6.58105 19.2214 5.80762 19.1641C4.06022 19.0781 2.71387 18.5625 1.76855 17.6172C1.39616 17.2734 1.09538 16.8724 0.866211 16.4141C0.637044 15.9557 0.465169 15.5117 0.350586 15.082C0.264648 14.6523 0.22168 14.151 0.22168 13.5781C0.164388 12.8047 0.135742 11.487 0.135742 9.625C0.135742 7.76302 0.164388 6.43099 0.22168 5.62891C0.307617 3.91016 0.823242 2.57812 1.76855 1.63281C2.71387 0.658854 4.06022 0.128906 5.80762 0.0429688C6.58105 0.0143229 7.89876 0 9.76074 0C11.6227 0 12.9404 0.0143229 13.7139 0.0429688C15.4613 0.128906 16.8076 0.658854 17.7529 1.63281C18.7269 2.57812 19.2568 3.92448 19.3428 5.67188ZM17.2803 15.2969C17.3662 15.0677 17.4378 14.7812 17.4951 14.4375C17.5524 14.0651 17.5954 13.6354 17.624 13.1484C17.6527 12.6328 17.667 12.2174 17.667 11.9023C17.667 11.5872 17.667 11.1432 17.667 10.5703C17.667 9.9974 17.667 9.68229 17.667 9.625C17.667 9.53906 17.667 9.22396 17.667 8.67969C17.667 8.10677 17.667 7.66276 17.667 7.34766C17.667 7.03255 17.6527 6.63151 17.624 6.14453C17.5954 5.62891 17.5524 5.19922 17.4951 4.85547C17.4378 4.48307 17.3662 4.18229 17.2803 3.95312C16.9365 3.0651 16.3206 2.44922 15.4326 2.10547C15.2035 2.01953 14.9027 1.94792 14.5303 1.89062C14.1865 1.83333 13.7568 1.79036 13.2412 1.76172C12.7542 1.73307 12.3532 1.71875 12.0381 1.71875C11.7516 1.71875 11.3076 1.71875 10.7061 1.71875C10.1331 1.71875 9.81803 1.71875 9.76074 1.71875C9.70345 1.71875 9.38835 1.71875 8.81543 1.71875C8.24251 1.71875 7.7985 1.71875 7.4834 1.71875C7.16829 1.71875 6.75293 1.73307 6.2373 1.76172C5.75033 1.79036 5.32064 1.83333 4.94824 1.89062C4.60449 1.94792 4.31803 2.01953 4.08887 2.10547C3.20085 2.44922 2.58496 3.0651 2.24121 3.95312C2.15527 4.18229 2.08366 4.48307 2.02637 4.85547C1.96908 5.19922 1.92611 5.62891 1.89746 6.14453C1.86882 6.63151 1.85449 7.03255 1.85449 7.34766C1.85449 7.63411 1.85449 8.07812 1.85449 8.67969C1.85449 9.2526 1.85449 9.56771 1.85449 9.625C1.85449 9.73958 1.85449 10.0117 1.85449 10.4414C1.85449 10.8424 1.85449 11.1862 1.85449 11.4727C1.85449 11.7305 1.85449 12.0742 1.85449 12.5039C1.88314 12.9336 1.91178 13.306 1.94043 13.6211C1.96908 13.9076 2.01204 14.2083 2.06934 14.5234C2.12663 14.8385 2.18392 15.0964 2.24121 15.2969C2.61361 16.1849 3.22949 16.8008 4.08887 17.1445C4.31803 17.2305 4.60449 17.3021 4.94824 17.3594C5.32064 17.4167 5.75033 17.4596 6.2373 17.4883C6.75293 17.5169 7.15397 17.5312 7.44043 17.5312C7.75553 17.5312 8.19954 17.5312 8.77246 17.5312C9.37402 17.5312 9.70345 17.5312 9.76074 17.5312C9.84668 17.5312 10.1618 17.5312 10.7061 17.5312C11.279 17.5312 11.723 17.5312 12.0381 17.5312C12.3532 17.5312 12.7542 17.5169 13.2412 17.4883C13.7568 17.4596 14.1865 17.4167 14.5303 17.3594C14.9027 17.3021 15.2035 17.2305 15.4326 17.1445C16.3206 16.7721 16.9365 16.1562 17.2803 15.2969Z" fill="#222222"/>
</svg>
