<svg width="24" height="14" viewBox="0 0 24 14" fill="none" xmlns="http://www.w3.org/2000/svg">
<path d="M22.6016 0.945312C22.5156 1.375 22.1719 2.07682 21.5703 3.05078C20.9974 4.02474 20.4674 4.88411 19.9805 5.62891C19.4935 6.34505 19.2357 6.71745 19.207 6.74609C19.0352 7.00391 18.9492 7.1901 18.9492 7.30469C18.9492 7.41927 19.0352 7.61979 19.207 7.90625C19.207 7.90625 19.293 8.00651 19.4648 8.20703C19.6654 8.40755 19.8945 8.63672 20.1523 8.89453C20.4102 9.15234 20.6966 9.45312 21.0117 9.79688C21.3268 10.1406 21.6133 10.4844 21.8711 10.8281C22.1576 11.1432 22.401 11.4727 22.6016 11.8164C22.8307 12.1602 22.9883 12.4466 23.0742 12.6758C23.2747 13.3919 22.9883 13.75 22.2148 13.75H19.6797C19.4792 13.75 19.3073 13.7214 19.1641 13.6641C19.0208 13.6068 18.8633 13.5065 18.6914 13.3633C18.5195 13.2201 18.362 13.0625 18.2188 12.8906C18.0755 12.7188 17.8607 12.4753 17.5742 12.1602C17.2878 11.8451 17.0013 11.5443 16.7148 11.2578C15.569 10.1693 14.724 9.625 14.1797 9.625C13.8359 9.625 13.6354 9.72526 13.5781 9.92578C13.5208 10.1263 13.4922 10.6992 13.4922 11.6445C13.5208 12.1029 13.5352 12.4753 13.5352 12.7617C13.5352 13.1055 13.4206 13.3633 13.1914 13.5352C12.9622 13.6784 12.4609 13.75 11.6875 13.75C10.3411 13.75 8.98047 13.349 7.60547 12.5469C6.23047 11.7448 5.02734 10.599 3.99609 9.10938C3.02214 7.79167 2.20573 6.48828 1.54688 5.19922C0.916667 3.88151 0.501302 2.87891 0.300781 2.19141C0.10026 1.50391 0 1.01693 0 0.730469C0 0.24349 0.286458 0 0.859375 0H3.39453C3.70964 0 3.9388 0.0716146 4.08203 0.214844C4.25391 0.358073 4.39714 0.615885 4.51172 0.988281C5.11328 2.73568 5.84375 4.29688 6.70312 5.67188C7.59115 7.04688 8.26432 7.73438 8.72266 7.73438C8.89453 7.73438 9.00911 7.67708 9.06641 7.5625C9.15234 7.41927 9.19531 7.16146 9.19531 6.78906V3.05078C9.16667 2.64974 9.09505 2.30599 8.98047 2.01953C8.86589 1.73307 8.7513 1.53255 8.63672 1.41797C8.52214 1.27474 8.40755 1.13151 8.29297 0.988281C8.20703 0.845052 8.16406 0.716146 8.16406 0.601562C8.16406 0.486979 8.19271 0.386719 8.25 0.300781C8.30729 0.214844 8.37891 0.143229 8.46484 0.0859375C8.57943 0.0286458 8.69401 0 8.80859 0H12.8047C13.263 0 13.4922 0.315104 13.4922 0.945312V5.92969C13.4922 6.41667 13.6211 6.66016 13.8789 6.66016C14.1654 6.66016 14.5664 6.40234 15.082 5.88672C15.6263 5.28516 16.1562 4.55469 16.6719 3.69531C17.1875 2.83594 17.5742 2.11979 17.832 1.54688L18.2188 0.730469C18.4193 0.24349 18.7773 0 19.293 0H21.8281C22.5156 0 22.7734 0.315104 22.6016 0.945312Z" fill="#222222"/>
</svg>
